<svg width="143" height="91" viewBox="0 0 143 91" fill="none" xmlns="http://www.w3.org/2000/svg">
    <g clip-path="url(#clip0_70_34)">
        <path d="M13 35L38 12L47.5 21.5L58.5 16L79 56.5L63 64.5L51.5 81.5L13 56.5L20.5 45L13 35Z"
            fill="white" />
        <path
            d="M56.3282 15.6432L46.7739 20.2367L44.2209 17.2998C43.8872 16.916 43.3058 16.8753 42.9219 17.209C42.5381 17.5427 42.4974 18.1241 42.8311 18.508L69.7842 49.5139C70.3481 50.1627 70.2791 51.1494 69.6303 51.7134L46.2313 72.0538C45.5825 72.6179 44.5958 72.5489 44.0318 71.9001L34.7201 61.1882C34.3864 60.8044 33.805 60.7637 33.4212 61.0974C33.0373 61.4311 32.9967 62.0125 33.3303 62.3964L42.6419 73.1081C43.8721 74.5233 46.0242 74.6738 47.4395 73.4435L65.4525 57.7851L50.9422 79.5645C50.7521 79.8504 50.4616 80.045 50.1245 80.1125C49.7875 80.18 49.4444 80.1122 49.1585 79.9217L14.2541 56.6664C13.6639 56.2733 13.5036 55.4729 13.8968 54.8826L19.4948 46.4802L30.5115 59.1534C30.8452 59.5373 31.4266 59.578 31.8104 59.2443C32.1943 58.9106 32.2349 58.3292 31.9013 57.9453L13.1145 36.3336C12.5505 35.6848 12.6195 34.6981 13.2683 34.134L36.6672 13.7937C37.316 13.2297 38.3027 13.2987 38.8668 13.9475L40.0121 15.265C40.3457 15.6489 40.9272 15.6895 41.311 15.3559C41.6949 15.0222 41.7355 14.4408 41.4019 14.0569L40.2565 12.7394C39.0264 11.3242 36.8741 11.1737 35.4589 12.4039L12.06 32.7442C10.6448 33.9744 10.4943 36.1267 11.7245 37.5419L18.2419 45.0393L12.3638 53.8618C11.408 55.2974 11.7978 57.2432 13.233 58.1991L48.1373 81.4544C48.8328 81.9176 49.6668 82.0821 50.486 81.9182C51.0258 81.8101 51.5165 81.5679 51.921 81.2162C52.1305 81.0341 52.3168 80.8227 52.4749 80.5854L61.8962 66.4445L77.2103 59.0836C77.4673 58.9599 77.6997 58.8054 77.9054 58.6266C78.9428 57.7247 79.2973 56.2059 78.6744 54.9086L71.3015 39.5705C71.0812 39.1122 70.531 38.9193 70.0727 39.1396C69.6145 39.3604 69.4214 39.91 69.6417 40.3684L77.0145 55.7061C77.3216 56.3456 77.051 57.1165 76.412 57.4241L63.8987 63.4387L67.7732 57.6231C68.2248 56.9465 68.3889 56.134 68.2519 55.3516L70.8383 53.1033C72.2536 51.873 72.4041 49.7209 71.1739 48.3057L48.0266 21.6778L57.1255 17.3031C57.7653 16.9961 58.5358 17.2666 58.8429 17.9064L67.7795 36.497C67.9998 36.9554 68.5499 37.1483 69.0083 36.928C69.0844 36.8914 69.1532 36.8458 69.2139 36.793C69.5192 36.5276 69.6229 36.0814 69.4392 35.6992L60.5029 17.1091C59.7566 15.5544 57.884 14.8967 56.3282 15.6432Z"
            fill="black" />
        <g clip-path="url(#clip1_70_34)">
            <path fill-rule="evenodd" clip-rule="evenodd"
                d="M47.1673 50.2423C45.2249 51.4695 42.4894 51.272 40.4904 47.5438C42.1098 47.9598 41.8933 47.1845 41.8933 47.1845C38.8697 43.6186 40.7734 40.4151 40.7734 40.4151C41.5421 42.9133 43.1667 41.5886 45.0543 43.542C45.416 42.6425 45.3311 42.0625 45.3311 42.0625C50.0084 43.0876 50.2131 46.5524 48.6357 48.8581C51.539 45.5986 51.943 40.3895 45.4493 35.6368C45.8016 38.7733 44.4093 38.1649 44.4093 38.1649C38.5382 31.5765 32.0503 34.2932 32.0503 34.2932C36.5181 36.3864 33.615 39.0751 36.7703 43.1165C34.9942 43.5562 33.9323 43.2451 33.9323 43.2451C34.6944 53.236 42.5051 53.7408 47.1673 50.2423Z"
                fill="#FF0000" />
        </g>
        <path
            d="M24.8596 44.3401C24.6694 44.5054 24.4685 44.5873 24.2569 44.5857C24.0524 44.578 23.8644 44.4756 23.6929 44.2783C23.5459 44.1093 23.4771 43.9589 23.4863 43.8273C23.4894 43.6885 23.5754 43.5457 23.7445 43.3987C23.8149 43.3375 23.888 43.2864 23.9636 43.2454C24.0402 43.1912 24.144 43.1257 24.2751 43.0488C24.4061 42.972 24.5795 42.8584 24.7951 42.7081C25.2448 41.5752 25.5294 40.5795 25.649 39.7212C25.7624 38.8559 25.5895 38.1591 25.1303 37.6308C24.9894 37.4687 24.825 37.4076 24.637 37.4474C24.456 37.4811 24.2542 37.5761 24.0315 37.7326C23.8098 37.8758 23.5801 38.0384 23.3425 38.2202C23.111 38.4091 22.8768 38.5879 22.6401 38.7566C22.3972 38.9183 22.1567 39.047 21.9184 39.1428C21.6802 39.2386 21.4435 39.2651 21.2083 39.2222C20.9802 39.1731 20.762 39.0289 20.5538 38.7894C20.1375 38.3104 19.8016 37.7676 19.5463 37.1609C19.2849 36.5472 19.1002 35.9719 18.9922 35.4351C18.8339 35.5233 18.7056 35.5606 18.6073 35.5471C18.5099 35.5205 18.4214 35.4614 18.3418 35.3698C18.2622 35.2782 18.2772 35.1106 18.3869 34.8668C18.4966 34.6231 18.6652 34.3405 18.8927 34.019C18.9231 33.869 18.9664 33.7695 19.0228 33.7205C19.065 33.6837 19.113 33.6606 19.1666 33.6511C19.4364 33.2929 19.7436 32.9207 20.0881 32.5347C20.4266 32.1415 20.7737 31.7656 21.1296 31.4067C21.4855 31.0479 21.8219 30.7307 22.1389 30.4552C22.5334 30.1123 22.8676 29.9206 23.1417 29.8802C23.4097 29.8328 23.6018 29.876 23.7181 30.0099C23.7855 30.0874 23.8115 30.1884 23.7962 30.313C23.7818 30.4245 23.7001 30.5511 23.5513 30.6929C23.4879 30.748 23.3663 30.8784 23.1865 31.0841C23.0077 31.2767 22.7891 31.5162 22.531 31.8024C22.2728 32.0887 21.9965 32.3969 21.7022 32.7269C21.4079 33.057 21.1175 33.3774 20.8312 33.6881C20.5448 33.9989 20.2805 34.2781 20.0382 34.5258C20.1077 34.7622 20.1876 35.0391 20.2779 35.3563C20.3752 35.6675 20.4786 35.9856 20.5882 36.3109C20.6987 36.6229 20.8172 36.9157 20.9436 37.1891C21.0639 37.4556 21.1914 37.6663 21.3261 37.8212C21.4731 37.9903 21.6706 38.0041 21.9186 37.8627C22.1667 37.7212 22.4478 37.5325 22.762 37.2965C23.0067 37.1085 23.2677 36.9249 23.5448 36.7458C23.822 36.5668 24.106 36.4311 24.3969 36.339C24.6949 36.2408 24.9899 36.2316 25.2821 36.3116C25.5812 36.3854 25.8747 36.5879 26.1625 36.919C26.4503 37.25 26.6496 37.6642 26.7603 38.1615C26.8711 38.6588 26.9062 39.1972 26.8657 39.7765C26.8252 40.3559 26.7153 40.9337 26.5361 41.51C26.3569 42.0863 26.1242 42.6224 25.8381 43.1184C25.5591 43.6083 25.2329 44.0155 24.8596 44.3401Z"
            fill="black" />
        <path
            d="M58.9277 40.6848C59.1179 40.5195 59.3188 40.4376 59.5304 40.4392C59.7349 40.4469 59.9229 40.5494 60.0944 40.7466C60.2413 40.9156 60.3102 41.066 60.301 41.1977C60.2979 41.3364 60.2119 41.4792 60.0428 41.6262C59.9724 41.6874 59.8993 41.7385 59.8237 41.7796C59.7471 41.8338 59.6433 41.8993 59.5122 41.9761C59.3812 42.0529 59.2078 42.1665 58.9922 42.3168C58.5425 43.4498 58.2579 44.4454 58.1383 45.3037C58.0249 46.169 58.1978 46.8659 58.657 47.3942C58.7979 47.5562 58.9623 47.6173 59.1503 47.5775C59.3313 47.5439 59.5331 47.4488 59.7557 47.2924C59.9775 47.1491 60.2072 46.9865 60.4448 46.8047C60.6763 46.6158 60.9105 46.437 61.1472 46.2683C61.3901 46.1067 61.6306 45.9779 61.8689 45.8821C62.1071 45.7863 62.3438 45.7599 62.579 45.8028C62.8071 45.8518 63.0253 45.9961 63.2335 46.2356C63.6498 46.7145 63.9857 47.2574 64.241 47.864C64.5024 48.4777 64.6871 49.053 64.7951 49.5898C64.9534 49.5016 65.0817 49.4643 65.18 49.4778C65.2774 49.5044 65.3659 49.5636 65.4455 49.6551C65.5251 49.7467 65.5101 49.9143 65.4004 50.1581C65.2907 50.4018 65.1221 50.6844 64.8945 51.0059C64.8642 51.156 64.8209 51.2555 64.7645 51.3045C64.7222 51.3412 64.6743 51.3643 64.6207 51.3738C64.3509 51.732 64.0437 52.1042 63.6991 52.4903C63.3607 52.8834 63.0136 53.2594 62.6577 53.6182C62.3018 53.977 61.9654 54.2942 61.6484 54.5698C61.2539 54.9127 60.9197 55.1043 60.6456 55.1447C60.3776 55.1921 60.1855 55.1489 60.0692 55.0151C60.0018 54.9376 59.9758 54.8365 59.9911 54.7119C60.0055 54.6004 60.0872 54.4738 60.236 54.3321C60.2994 54.277 60.421 54.1465 60.6008 53.9408C60.7796 53.7482 60.9982 53.5088 61.2563 53.2225C61.5145 52.9362 61.7908 52.6281 62.0851 52.298C62.3794 51.968 62.6698 51.6475 62.9561 51.3368C63.2425 51.026 63.5068 50.7468 63.7491 50.4991C63.6796 50.2627 63.5997 49.9859 63.5094 49.6686C63.4121 49.3575 63.3087 49.0393 63.1991 48.7141C63.0886 48.402 62.9701 48.1093 62.8437 47.8358C62.7234 47.5694 62.5959 47.3587 62.4612 47.2037C62.3142 47.0346 62.1167 47.0208 61.8687 47.1623C61.6206 47.3037 61.3395 47.4924 61.0252 47.7285C60.7806 47.9165 60.5196 48.1 60.2425 48.2791C59.9653 48.4582 59.6813 48.5938 59.3904 48.6859C59.0924 48.7842 58.7974 48.7933 58.5052 48.7133C58.2061 48.6395 57.9126 48.437 57.6248 48.106C57.337 47.7749 57.1377 47.3607 57.027 46.8634C56.9162 46.3661 56.8811 45.8277 56.9216 45.2484C56.9621 44.669 57.072 44.0912 57.2512 43.5149C57.4304 42.9387 57.6631 42.4025 57.9492 41.9065C58.2282 41.4166 58.5544 41.0094 58.9277 40.6848Z"
            fill="black" />
    </g>
    <g clip-path="url(#clip2_70_34)">
        <path
            d="M63.5428 26.0636H62.7696C62.1864 26.0636 61.7138 25.5909 61.7138 25.0078V16.923H66.2707V23.3357C66.2707 24.8422 65.0495 26.0636 63.5428 26.0636Z"
            fill="#F3F0F3" />
        <path
            d="M99.5919 46.99C95.8462 47.6779 83.3522 50.9894 82.7664 64.6183C82.7344 65.363 82.0821 65.9279 81.3397 65.8624C77.7801 65.5489 68.6803 65.3475 68.325 71.4296C68.2805 72.1908 68.8759 72.8372 69.6385 72.8372H102.475C103.201 72.8372 103.791 72.2482 103.791 71.5215V54.6277C103.791 54.4536 103.756 54.2814 103.689 54.1206L101.041 47.7779C100.802 47.2074 100.2 46.8784 99.5919 46.99Z"
            fill="#EA9B58" />
        <path
            d="M65.4 5.88744L71.3697 3.69898C72.9336 3.12564 74.5696 2.77343 76.2307 2.65232L82.286 2.21072C86.0248 1.93813 89.7526 2.84715 92.9493 4.80518C96.9094 7.23097 102.45 10.2144 105.617 10.1238C110.932 9.97202 137.962 12.0979 137.962 46.4175C137.962 80.7372 100.682 72.6889 100.682 72.6889C100.682 72.6889 89.6799 65.6314 84.0577 50.7234C83.4076 48.9995 82.6332 47.3243 81.7553 45.7045L72.4356 28.5074C71.185 26.1997 69.4555 24.1862 67.3629 22.6018L63.6528 19.7924C62.4315 18.8675 61.7138 17.4241 61.7138 15.8922V11.1646C61.714 8.80644 63.1859 6.69895 65.4 5.88744Z"
            fill="#EA9B58" />
        <path
            d="M61.714 14.2526V15.892C61.714 17.424 62.4316 18.8675 63.653 19.7922L65.4562 21.1577L61.714 14.2526Z"
            fill="#D88A55" />
        <path
            d="M128.103 18.7692C128.856 22.2226 129.28 26.1211 129.28 30.5245C129.28 46.6491 121.46 53.887 112.803 56.9593C103.138 60.3889 92.7018 58.5031 84.8268 52.6369C90.6235 66.2352 100.682 72.6889 100.682 72.6889C100.682 72.6889 137.962 80.7373 137.962 46.4177C137.962 32.6865 133.635 24.1094 128.103 18.7692Z"
            fill="#D88A55" />
        <path
            d="M86.724 53.9433C84.5624 56.4992 82.967 59.9543 82.7666 64.6183C82.7345 65.363 82.0823 65.9279 81.3399 65.8624C77.7802 65.5489 68.6805 65.3475 68.3252 71.4296C68.2807 72.1908 68.8761 72.8372 69.6387 72.8372H102.475C103.202 72.8372 103.791 72.2482 103.791 71.5215V58.6524C97.7486 58.8344 91.8013 57.1619 86.724 53.9433Z"
            fill="#D88A55" />
        <path
            d="M88.3824 27.4252C88.3824 27.4252 92.1459 33.1913 88.0559 38.3902C83.9659 43.5891 75.822 37.2992 73.7829 38.8512C71.7437 40.4032 66.6214 42.2946 64.7435 38.7515C64.274 37.8658 64.1003 37.0109 64.104 36.2267C64.114 34.0968 65.5295 32.2258 67.5405 31.5244L77.6811 27.9872L88.3824 27.4252Z"
            fill="#EA9B58" />
        <path
            d="M68.3023 9.468V4.8234L65.4 5.88727C63.1859 6.69895 61.7138 8.80644 61.7138 11.1646V13.3876H64.3825C66.5473 13.3876 68.3023 11.6328 68.3023 9.468Z"
            fill="#918291" />
        <path
            d="M136.655 55.8138C136.655 55.8138 124.716 68.8879 113.053 66.7613C101.15 64.5909 84.1921 66.618 84.1918 75.1496C84.1913 88.0498 115.613 85.5285 125.138 79.5571C134.664 73.5856 140.778 63.0649 136.655 55.8138Z"
            fill="#918291" />
        <path
            d="M87.9413 6.03048C87.9413 6.03048 90.1979 -0.188418 94.4946 1.57834C99.6992 3.71838 97.3729 8.77524 94.9362 10.1122C92.339 11.5372 90.1833 9.96207 90.1833 9.96207"
            fill="#918291" />
        <path
            d="M76.4254 8.55325C75.7267 8.55325 75.1603 9.11968 75.1603 9.81835V10.587C75.1603 11.2857 75.7267 11.8521 76.4254 11.8521C76.9478 11.8521 77.3961 11.5353 77.5891 11.0835H78.3158C79.0144 11.0835 79.5809 10.517 79.5809 9.81835C79.5809 9.11968 79.0144 8.55325 78.3158 8.55325H76.4254Z"
            fill="black" />
        <path
            d="M138.121 55.8923C138.855 53.0438 139.227 49.8596 139.227 46.4177C139.227 32.7863 135.082 22.5641 126.906 16.0352C126.36 15.5992 125.564 15.6884 125.128 16.2343C124.692 16.7801 124.781 17.5763 125.327 18.0123C132.872 24.0372 136.697 33.5941 136.697 46.4177C136.697 49.5147 136.376 52.3721 135.75 54.9316C135.74 54.9416 135.729 54.9504 135.72 54.9608C135.605 55.0865 124.13 67.4953 113.28 65.5168C108.529 64.6506 103.051 64.4575 98.2494 64.987C94.4223 65.409 89.1705 66.4874 85.8844 69.2285C85.0272 69.9435 84.3547 70.7263 83.8689 71.5721H69.6385C69.6304 71.5721 69.6195 71.5721 69.6061 71.5579C69.5861 71.5367 69.5876 71.5115 69.5881 71.5034C69.651 70.4266 70.0618 69.5749 70.8439 68.8995C73.3966 66.6952 78.9569 66.9228 81.2289 67.1228C81.9282 67.1844 82.6304 66.9543 83.1576 66.492C83.6823 66.0316 84.0006 65.3685 84.0305 64.6726C84.2631 59.2595 86.517 54.9893 90.7294 51.9808C94.1356 49.5481 97.8872 48.5893 99.8204 48.2344C100.508 48.1082 100.962 47.4488 100.836 46.7616C100.71 46.0744 100.051 45.6195 99.3635 45.7458C97.2233 46.1389 93.0645 47.2041 89.2591 49.9218C88.1127 50.7406 87.0932 51.6399 86.1984 52.616C85.859 51.8433 85.5375 51.0621 85.2413 50.2769C84.5871 48.542 83.7884 46.8009 82.8674 45.1017L80.8905 41.4536C83.7076 42.0269 86.8446 41.9762 89.0504 39.1722C92.7295 34.4956 90.9153 28.9909 89.4421 26.7336C89.0602 26.1484 88.276 25.9838 87.6912 26.3657C87.106 26.7476 86.9414 27.5314 87.3231 28.1166C87.3558 28.1667 90.55 33.1738 87.0618 37.6079C85.1642 40.0198 82.137 39.3181 78.3768 38.15C76.0907 37.4399 74.2848 36.8788 73.0169 37.8444C71.8729 38.7151 69.3339 39.8176 67.5176 39.4181C66.7541 39.2503 66.2278 38.8502 65.8615 38.1589C65.5319 37.5372 65.3662 36.8891 65.3694 36.2326C65.3767 34.6683 66.4167 33.2563 67.9575 32.7189L78.0978 29.1816C78.7575 28.9516 79.1059 28.2301 78.8756 27.5704C78.6455 26.9107 77.9241 26.5624 77.2644 26.7926L73.6319 28.0597L73.5479 27.9047C72.2021 25.4216 70.3782 23.2981 68.1267 21.5932L64.4165 18.7839C63.5165 18.1022 62.9791 17.0213 62.9791 15.8922V14.6529H64.3826C67.2416 14.6529 69.5674 12.327 69.5674 9.46817V5.70712L71.8054 4.88666C73.2589 4.3538 74.7787 4.02656 76.323 3.91388L82.3781 3.47228C84.1258 3.34492 85.8602 3.4915 87.5502 3.9073C87.0723 4.74783 86.8115 5.43537 86.7521 5.59882C86.5141 6.25465 86.8525 6.97812 87.5078 7.21748C88.163 7.45683 88.889 7.11914 89.1297 6.46432C89.4276 5.65365 90.5382 3.4016 92.0785 2.72435C92.6971 2.45244 93.3119 2.45986 94.0135 2.7483C95.5022 3.36044 96.2895 4.25023 96.3534 5.39303C96.4344 6.84301 95.3713 8.43029 94.3277 9.00279C92.4989 10.0063 90.9821 8.97664 90.9297 8.94037C90.3656 8.52829 89.574 8.65126 89.1619 9.21549C88.7496 9.77956 88.8729 10.5712 89.437 10.9833C89.5156 11.0408 90.8271 11.9766 92.6991 11.9764C93.5525 11.9764 94.5225 11.7818 95.5447 11.2209C96.3741 10.766 97.2096 9.97151 97.8383 8.97985C101.223 10.6518 103.786 11.4417 105.653 11.3881C106.415 11.3668 113.305 11.279 120.41 14.8666C120.593 14.9589 120.788 15.0027 120.979 15.0027C121.442 15.0027 121.887 14.7484 122.11 14.3076C122.425 13.6838 122.174 12.9231 121.551 12.6082C114.048 8.81977 106.931 8.82061 105.581 8.85907C104.567 8.88741 102.571 8.51294 98.7858 6.62558C98.8703 6.17858 98.906 5.71842 98.8799 5.25168C98.8106 4.01374 98.2114 1.73841 94.9758 0.408035C93.6483 -0.137813 92.2911 -0.136295 91.0504 0.412252C90.3315 0.730214 89.7084 1.20117 89.1761 1.73184C86.9088 1.03991 84.5623 0.775926 82.1941 0.948654L76.139 1.39026C74.3601 1.51997 72.609 1.89697 70.9345 2.51097L64.9646 4.69959C62.2635 5.68974 60.4489 8.28792 60.4489 11.1648V25.0078C60.4489 26.2876 61.4899 27.3287 62.7697 27.3287H63.5429C65.4209 27.3287 66.999 26.0253 67.4231 24.2759C68.9507 25.5859 70.2205 27.1386 71.2088 28.905L67.124 30.3298C64.5734 31.2195 62.8514 33.5869 62.839 36.2208C62.8342 37.299 63.0988 38.3497 63.6259 39.3439C64.3359 40.6836 65.4939 41.5638 66.9742 41.8893C67.4233 41.988 67.8843 42.0322 68.3483 42.0322C70.7549 42.0322 73.2427 40.8423 74.5222 39.8781C74.9496 39.7445 76.4532 40.2023 77.5129 40.5311L80.643 46.307C81.5096 47.9058 82.26 49.5418 82.874 51.1696C83.345 52.418 83.8741 53.6581 84.4449 54.8677C82.6478 57.6199 81.6619 60.8614 81.5028 64.5636C81.5026 64.5695 81.5023 64.5783 81.4895 64.5894C81.473 64.6039 81.4579 64.6027 81.451 64.6019C78.2306 64.3182 72.3556 64.2505 69.1904 66.984C67.8817 68.1142 67.1657 69.5849 67.0623 71.3555C67.0206 72.0692 67.277 72.7756 67.7657 73.2938C68.2501 73.8074 68.9328 74.102 69.6387 74.102H83.0022C82.9541 74.444 82.927 74.7925 82.927 75.1495C82.927 78.2589 84.5279 80.8524 87.5569 82.6495C91.7365 85.1289 97.7345 85.7129 102.456 85.7127C103.996 85.7127 105.401 85.6505 106.562 85.5717C113.786 85.0815 120.844 83.3731 124.981 81.1131C125.595 80.7781 125.82 80.0096 125.485 79.3965C125.15 78.7833 124.382 78.5576 123.769 78.8926C119.99 80.9566 113.169 82.5874 106.391 83.0472C98.8608 83.558 92.4667 82.62 88.8481 80.4732C86.5664 79.1195 85.4572 77.3781 85.4573 75.1493C85.4573 74.5113 85.5761 73.9132 85.8126 73.3488C85.8208 73.3302 85.8283 73.3112 85.8355 73.2923C86.1683 72.5272 86.7223 71.8244 87.5058 71.171C92.2982 67.1734 104.143 66.4223 112.827 68.0055C113.788 68.1808 114.747 68.2617 115.701 68.2616C124.676 68.2607 133.069 61.0939 136.255 58.0207C137.201 60.9221 136.471 63.9147 135.596 66.0564C134.152 69.595 131.373 73.1654 127.773 76.1101C127.232 76.5525 127.153 77.3495 127.595 77.8903C128.037 78.4313 128.834 78.5111 129.375 78.0686C133.296 74.8615 136.337 70.935 137.939 67.0128C139.603 62.9352 139.662 59.1093 138.121 55.8923ZM65.8355 7.07511L67.0372 6.63452V9.46801C67.0372 10.9316 65.8463 12.1225 64.3826 12.1225H62.9791V11.1646C62.9791 9.34487 64.1269 7.70142 65.8355 7.07511ZM63.5429 24.7985H62.9791V20.8691L65.0057 22.4037V23.3357C65.0056 24.1421 64.3494 24.7985 63.5429 24.7985Z"
            fill="black" />
    </g>
    <defs>
        <clipPath id="clip0_70_34">
            <rect width="62.8562" height="62.8562" fill="white"
                transform="translate(0 43.1465) rotate(-41)" />
        </clipPath>
        <clipPath id="clip1_70_34">
            <rect width="21.9546" height="21.9546" fill="white"
                transform="translate(24.7711 40.6209) rotate(-41)" />
        </clipPath>
        <clipPath id="clip2_70_34">
            <rect width="85.713" height="85.713" fill="white" transform="translate(56.9847)" />
        </clipPath>
    </defs>
</svg>